<svg width="10" height="10" viewBox="0 0 10 10" fill="none" xmlns="http://www.w3.org/2000/svg">
<path fill-rule="evenodd" clip-rule="evenodd" d="M5.15021 2.45264C5.42921 2.45264 5.65539 2.67197 5.65539 2.94252C5.65539 3.21308 5.42921 3.43241 5.15021 3.43241C4.87121 3.43241 4.64502 3.21308 4.64502 2.94252C4.64502 2.67197 4.87121 2.45264 5.15021 2.45264Z" fill="#BABEC3"/>
<path fill-rule="evenodd" clip-rule="evenodd" d="M4.54346 4.21627C4.54346 4.05394 4.67914 3.92236 4.84655 3.92236H5.25071C5.41811 3.92236 5.55383 4.05394 5.55383 4.21627V6.95964C5.55383 7.12197 5.41811 7.25358 5.25071 7.25358C5.0833 7.25358 4.94761 7.12197 4.94761 6.95964V4.51021H4.84655C4.67914 4.51021 4.54346 4.37861 4.54346 4.21627Z" fill="#BABEC3"/>
<path fill-rule="evenodd" clip-rule="evenodd" d="M4.24023 6.95947C4.24023 6.79713 4.37595 6.66553 4.54336 6.66553H5.95789C6.1253 6.66553 6.26102 6.79713 6.26102 6.95947C6.26102 7.1218 6.1253 7.25338 5.95789 7.25338H4.54336C4.37595 7.25338 4.24023 7.1218 4.24023 6.95947Z" fill="#BABEC3"/>
</svg>
