<svg width="10" height="10" viewBox="0 0 10 10" fill="none" xmlns="http://www.w3.org/2000/svg">
<g clip-path="url(#clip0_601_211)">
<path fill-rule="evenodd" clip-rule="evenodd" d="M2.0777 2.02094C2.8636 1.25887 3.95018 0.786987 5.14984 0.786987C6.3495 0.786987 7.43606 1.25887 8.22197 2.02094C9.00787 2.78304 9.4945 3.83669 9.4945 5C9.4945 6.1633 9.00787 7.21694 8.22197 7.97903C7.43606 8.74112 6.3495 9.213 5.14984 9.213C3.95018 9.213 2.8636 8.74112 2.0777 7.97903C1.2918 7.21694 0.805176 6.1633 0.805176 5C0.805176 3.83669 1.2918 2.78304 2.0777 2.02094ZM5.14984 1.37485C4.11743 1.37485 3.18325 1.78028 2.50637 2.43663C1.82951 3.093 1.41141 3.99888 1.41141 5C1.41141 6.00112 1.82951 6.907 2.50637 7.56336C3.18325 8.21969 4.11743 8.62515 5.14984 8.62515C6.18225 8.62515 7.11644 8.21969 7.79331 7.56336C8.47015 6.907 8.88828 6.00112 8.88828 5C8.88828 3.99888 8.47015 3.09297 7.79331 2.43663C7.11644 1.78028 6.18225 1.37485 5.14984 1.37485Z" fill="#BABEC3"/>
<path fill-rule="evenodd" clip-rule="evenodd" d="M5.15021 2.45264C5.42921 2.45264 5.65539 2.67197 5.65539 2.94252C5.65539 3.21308 5.42921 3.43241 5.15021 3.43241C4.87121 3.43241 4.64502 3.21308 4.64502 2.94252C4.64502 2.67197 4.87121 2.45264 5.15021 2.45264Z" fill="#BABEC3"/>
<path fill-rule="evenodd" clip-rule="evenodd" d="M4.54346 4.21615C4.54346 4.05382 4.67914 3.92224 4.84655 3.92224H5.25071C5.41811 3.92224 5.55383 4.05382 5.55383 4.21615V6.95951C5.55383 7.12185 5.41811 7.25345 5.25071 7.25345C5.0833 7.25345 4.94761 7.12185 4.94761 6.95951V4.51009H4.84655C4.67914 4.51009 4.54346 4.37848 4.54346 4.21615Z" fill="#BABEC3"/>
<path fill-rule="evenodd" clip-rule="evenodd" d="M4.24023 6.95959C4.24023 6.79726 4.37595 6.66565 4.54336 6.66565H5.95789C6.1253 6.66565 6.26102 6.79726 6.26102 6.95959C6.26102 7.12192 6.1253 7.2535 5.95789 7.2535H4.54336C4.37595 7.2535 4.24023 7.12192 4.24023 6.95959Z" fill="#BABEC3"/>
</g>
<defs>
<clipPath id="clip0_601_211">
<rect width="10" height="10" fill="white"/>
</clipPath>
</defs>
</svg>
