<svg width="20" height="20" viewBox="0 0 20 20" fill="none" xmlns="http://www.w3.org/2000/svg">
<path fill-rule="evenodd" clip-rule="evenodd" d="M4.375 1.6665C4.375 1.32133 4.65482 1.0415 5 1.0415H15C15.3452 1.0415 15.625 1.32133 15.625 1.6665V7.35278C15.625 10.5234 13.1236 13.1248 10 13.1248C6.87644 13.1248 4.375 10.5234 4.375 7.35278V1.6665ZM5.625 2.2915V7.35278C5.625 9.86744 7.60071 11.8748 10 11.8748C12.3993 11.8748 14.375 9.86744 14.375 7.35278V2.2915H5.625Z" fill="white"/>
<path fill-rule="evenodd" clip-rule="evenodd" d="M1.0415 4.58301C1.0415 4.23783 1.32133 3.95801 1.6665 3.95801H4.99984C5.34502 3.95801 5.62484 4.23783 5.62484 4.58301V8.74967C5.62484 9.09485 5.34502 9.37467 4.99984 9.37467C2.92768 9.37467 1.0415 7.64239 1.0415 4.58301ZM2.32395 5.20801C2.50507 6.88881 3.41739 7.77588 4.37484 8.03944V5.20801H2.32395Z" fill="white"/>
<path fill-rule="evenodd" clip-rule="evenodd" d="M14.375 4.58301C14.375 4.23783 14.6548 3.95801 15 3.95801H18.3333C18.6785 3.95801 18.9583 4.23783 18.9583 4.58301C18.9583 7.64239 17.0722 9.37467 15 9.37467C14.6548 9.37467 14.375 9.09485 14.375 8.74967V4.58301ZM15.625 5.20801V8.03944C16.5824 7.77588 17.4948 6.88881 17.6759 5.20801H15.625Z" fill="white"/>
<path fill-rule="evenodd" clip-rule="evenodd" d="M10 12.708C10.3452 12.708 10.625 12.9878 10.625 13.333V14.9997C10.625 15.3449 10.3452 15.6247 10 15.6247C9.65482 15.6247 9.375 15.3449 9.375 14.9997V13.333C9.375 12.9878 9.65482 12.708 10 12.708Z" fill="white"/>
<path fill-rule="evenodd" clip-rule="evenodd" d="M7.25514 14.6726C7.36887 14.4877 7.57042 14.375 7.78752 14.375H12.101C12.3111 14.375 12.5071 14.4805 12.6228 14.6559L14.2717 17.1559C14.3983 17.3478 14.4093 17.5938 14.3003 17.7963C14.1913 17.9987 13.9799 18.125 13.75 18.125H6.25C6.0236 18.125 5.81491 18.0026 5.70445 17.805C5.59398 17.6073 5.59902 17.3654 5.71762 17.1726L7.25514 14.6726ZM8.13687 15.625L7.36812 16.875H12.5891L11.7646 15.625H8.13687Z" fill="white"/>
</svg>
