<svg width="66" height="11" viewBox="0 0 66 11" fill="none" xmlns="http://www.w3.org/2000/svg">
<g clip-path="url(#clip0_601_491)">
<path d="M5.68926 0L3.95021 3.61194L0 4.19479L2.86158 7.04149L2.17754 11L5.68926 9.09502L9.20171 11L8.52271 7.04149L11.3793 4.19479L7.45095 3.61194L5.68926 0Z" fill="#FFB80F"/>
<path d="M19.3445 0L17.6055 3.61194L13.6553 4.19479L16.5168 7.04149L15.8328 11L19.3445 9.09502L22.857 11L22.178 7.04149L25.0346 4.19479L21.1062 3.61194L19.3445 0Z" fill="#FFB80F"/>
<path d="M32.9998 0L31.2608 3.61194L27.3105 4.19479L30.1721 7.04149L29.4881 11L32.9998 9.09502L36.5123 11L35.8333 7.04149L38.6899 4.19479L34.7615 3.61194L32.9998 0Z" fill="#FFB80F"/>
<path d="M46.6546 0L44.9155 3.61194L40.9653 4.19479L43.8269 7.04149L43.1429 11L46.6546 9.09502L50.167 11L49.488 7.04149L52.3446 4.19479L48.4163 3.61194L46.6546 0Z" fill="#FFB80F"/>
<path fill-rule="evenodd" clip-rule="evenodd" d="M60.6653 0.223529C60.5982 0.0862697 60.4599 -0.000392343 60.3091 1.33562e-06C60.1578 0.000394982 60.0201 0.0877762 59.9535 0.225383L58.4281 3.38229L54.9606 3.89202C54.8111 3.91399 54.6869 4.02003 54.6402 4.1656C54.5933 4.31116 54.6321 4.47103 54.7401 4.57806L57.2521 7.06805L56.6522 10.5279C56.6259 10.6795 56.6873 10.833 56.8101 10.9233C56.9329 11.0137 57.0962 11.0251 57.2299 10.9527L60.3097 9.28802L63.3906 10.9527C63.5243 11.025 63.6871 11.0137 63.81 10.9234C63.9329 10.8332 63.9943 10.6799 63.9681 10.5284L63.3724 7.06805L65.8804 4.57782C65.9885 4.47077 66.0272 4.31103 65.9806 4.16558C65.9333 4.02013 65.8093 3.91414 65.6602 3.89206L62.2117 3.38229L60.6653 0.223529ZM59.0489 3.92714L60.312 1.31239L61.5933 3.929C61.6513 4.0473 61.7623 4.12926 61.8914 4.14831L64.7527 4.57128L62.668 6.64114C62.5747 6.73387 62.5321 6.8673 62.5548 6.99787L63.0464 9.85468L60.4969 8.47682C60.3797 8.41379 60.2397 8.41379 60.1231 8.47688L57.5752 9.85396L58.0702 6.99837C58.093 6.86752 58.0509 6.73376 57.957 6.64092L55.8693 4.57172L58.749 4.14836C58.8787 4.12928 58.9908 4.0465 59.0489 3.92714Z" fill="#FFB80F"/>
</g>
<defs>
<clipPath id="clip0_601_491">
<rect width="66" height="11" fill="white"/>
</clipPath>
</defs>
</svg>
