<svg width="66" height="11" viewBox="0 0 66 11" fill="none" xmlns="http://www.w3.org/2000/svg">
<g clip-path="url(#clip0_601_273)">
<path d="M5.68926 0L3.95021 3.61194L0 4.19479L2.86158 7.04149L2.17754 11L5.68926 9.09502L9.20171 11L8.52271 7.04149L11.3793 4.19479L7.45095 3.61194L5.68926 0Z" fill="#FFB80F"/>
<path d="M19.3445 0L17.6055 3.61194L13.6553 4.19479L16.5168 7.04149L15.8328 11L19.3445 9.09502L22.857 11L22.178 7.04149L25.0346 4.19479L21.1062 3.61194L19.3445 0Z" fill="#FFB80F"/>
<path d="M32.9998 0L31.2608 3.61194L27.3105 4.19479L30.1721 7.04149L29.4881 11L32.9998 9.09502L36.5123 11L35.8333 7.04149L38.6899 4.19479L34.7615 3.61194L32.9998 0Z" fill="#FFB80F"/>
<path d="M46.6546 0L44.9155 3.61194L40.9653 4.19479L43.8269 7.04149L43.1429 11L46.6546 9.09502L50.167 11L49.488 7.04149L52.3446 4.19479L48.4163 3.61194L46.6546 0Z" fill="#FFB80F"/>
<path fill-rule="evenodd" clip-rule="evenodd" d="M60.6653 0.223529C60.5982 0.0862699 60.4599 -0.000392342 60.3086 1.33562e-06C60.1578 0.000394982 60.0201 0.0877758 59.9536 0.225384L58.4276 3.38229L54.9606 3.89202C54.8111 3.91399 54.6869 4.02003 54.6402 4.1656C54.5933 4.31116 54.6321 4.47103 54.7401 4.57806L57.2521 7.06804L56.6523 10.5279C56.626 10.6795 56.6873 10.833 56.8101 10.9233C56.9329 11.0137 57.0962 11.0251 57.2299 10.9527L60.3097 9.28801L63.3907 10.9527C63.5244 11.025 63.6871 11.0137 63.81 10.9234C63.9329 10.8332 63.9944 10.6799 63.9682 10.5284L63.3725 7.06804L65.8805 4.57781C65.9886 4.47077 66.0273 4.31103 65.9806 4.16558C65.9334 4.02013 65.8094 3.91414 65.6603 3.89206L62.2118 3.38228L60.6653 0.223529ZM60.2836 8.43045C60.3564 8.4255 60.4304 8.44095 60.4964 8.47681L63.0465 9.85467L62.5549 6.99786C62.5321 6.86729 62.5748 6.73392 62.6681 6.64113L64.7528 4.57128L61.8915 4.14831C61.7623 4.12926 61.6508 4.0473 61.5933 3.929L60.3376 1.36471L60.2836 8.43045Z" fill="#FFB80F"/>
</g>
<defs>
<clipPath id="clip0_601_273">
<rect width="66" height="11" fill="white"/>
</clipPath>
</defs>
</svg>
